Coordinates
version=1
nRows=9
nColumns=36
inDegrees=yes

Units are S.I. units (second, meters, Newtons, ...)
If the header above contains a line with 'inDegrees', this indicates whether rotational values are in degrees (yes) or radians (no).

endheader
time	pelvis_tilt	pelvis_list	pelvis_rotation	pelvis_tx	pelvis_ty	pelvis_tz	hip_flexion_r	hip_adduction_r	hip_rotation_r	knee_angle_r	knee_angle_r_beta	ankle_angle_r	subtalar_angle_r	mtp_angle_r	hip_flexion_l	hip_adduction_l	hip_rotation_l	knee_angle_l	knee_angle_l_beta	ankle_angle_l	subtalar_angle_l	mtp_angle_l	lumbar_extension	lumbar_bending	lumbar_rotation	arm_flex_r	arm_add_r	arm_rot_r	elbow_flex_r	pro_sup_r	arm_flex_l	arm_add_l	arm_rot_l	elbow_flex_l	pro_sup_l
      6.74000000	    -35.26986743	     -3.22971191	      2.44324787	     -0.37401732	      0.66596720	     -0.66182713	    103.30063386	    -22.11761822	     -6.64833892	     94.16589641	      1.64350494	     31.44051562	      2.12193427	     -7.49999987	    107.41300098	    -17.38382313	      0.02757875	     93.81531850	      1.63738620	     25.83657238	     12.49020423	     -7.49999987	    -31.04012101	      4.91150850	      2.25770983	     93.83035382	    -10.00976752	     19.42606095	    116.50308215	    101.38823515	     93.46636995	     -4.95086069	     24.94120803	    113.61606081	    109.35738415
      6.75000000	    -35.27574899	     -3.18076142	      2.52210821	     -0.37325673	      0.67213807	     -0.66169314	    102.51648966	    -22.01134968	     -6.85897342	     93.21713864	      1.62694599	     31.25752327	      2.05215626	     -7.49999987	    106.54141434	    -17.17802179	     -0.19941707	     92.82475838	      1.62009766	     25.65608216	     12.36821293	     -7.49999987	    -30.62387867	      4.87813902	      2.18583781	     93.25153968	    -10.07136819	     19.36461891	    116.72770794	    101.41037491	     92.94105526	     -4.93612034	     25.14315065	    113.70830099	    109.40665939
      6.76000000	    -35.27423110	     -3.11855429	      2.57833471	     -0.37251043	      0.67824478	     -0.66141441	    101.73099033	    -21.84600084	     -7.01358442	     92.27431999	      1.61049070	     31.09608076	      2.00468000	     -7.49999987	    105.68624768	    -16.94312457	     -0.35412075	     91.84321590	      1.60296651	     25.49213163	     12.26342407	     -7.49999987	    -30.21468148	      4.82285140	      2.11925042	     92.71863908	    -10.08399334	     19.34454475	    116.92775461	    101.43462332	     92.37214011	     -4.86864255	     25.20224875	    113.83644531	    109.44005660
      6.77000000	    -35.22142400	     -3.01155873	      2.64086392	     -0.37149395	      0.68467185	     -0.66131074	    100.89205791	    -21.73841587	     -7.16448587	     91.29793471	      1.59344956	     30.92650183	      1.96549997	     -7.49999987	    104.69627496	    -16.71533217	     -0.58800317	     90.82598383	      1.58521246	     25.32530054	     12.14466359	     -7.49999987	    -29.84416426	      4.78616743	      2.04403399	     92.13101990	    -10.09301262	     19.34875233	    117.13201414	    101.45979825	     91.73796919	     -4.83832422	     25.18979775	    114.00713161	    109.47212348
      6.78000000	    -35.04751667	     -2.56670413	      2.96057908	     -0.37023662	      0.69144385	     -0.66173276	    100.14981023	    -21.93906031	     -6.91506423	     90.44022706	      1.57847974	     30.13852820	      1.22316720	     -7.49999987	    103.34588749	    -16.20742011	     -1.34039540	     89.66330598	      1.56491991	     24.54953362	     10.70538507	     -7.49999987	    -29.63609402	      4.48390921	      1.53235193	     91.46464847	     -9.96058606	     19.03936633	    117.50372250	    101.56506065	     91.20370536	     -4.84300866	     25.02448678	    114.30897949	    109.71182282
      6.79000000	    -34.97528468	     -2.48125632	      3.04073897	     -0.36896932	      0.69768220	     -0.66173705	     99.27350684	    -21.87233831	     -7.08946856	     89.49030588	      1.56190049	     30.02924570	      1.28266581	     -7.49999987	    102.38535011	    -15.95796870	     -1.53195075	     88.68759094	      1.54789047	     24.44223068	     10.70527869	     -7.49999987	    -29.16512314	      4.44361580	      1.45783892	     90.75521299	    -10.04535166	     19.12339978	    117.63315099	    101.58531587	     90.49108690	     -4.88940499	     25.15203641	    114.42666797	    109.74959188
      6.80000000	    -34.90989836	     -2.40090069	      3.12766266	     -0.36776067	      0.70374399	     -0.66169179	     98.43733648	    -21.81103660	     -7.25048314	     88.56698144	      1.54578543	     29.90996797	      1.32351253	     -7.49999987	    101.45527463	    -15.68681353	     -1.69852420	     87.71696420	      1.53094984	     24.31769085	     10.67455522	     -7.49999987	    -28.67463729	      4.40430231	      1.38170161	     90.06520052	    -10.11998835	     19.15254667	    117.79670887	    101.60556981	     89.79422919	     -4.91963814	     25.23924548	    114.55833166	    109.77886619
      6.81000000	    -34.84582090	     -2.27391643	      3.25346700	     -0.36644096	      0.70985306	     -0.66168271	     97.62762034	    -21.79960904	     -7.37459104	     87.65263371	      1.52982706	     29.61652372	      1.17419980	     -7.49999987	    100.47286924	    -15.38151535	     -1.97291163	     86.67585930	      1.51277913	     23.98164419	     10.25023074	     -7.49999987	    -28.22940666	      4.32060559	      1.25535263	     89.31470847	    -10.09521164	     18.85029805	    118.24808808	    101.66221126	     89.07777137	     -4.79741158	     25.06487777	    114.88220086	    109.84013437
      6.82000000	    -34.71288142	     -2.17555930	      3.23414242	     -0.36494642	      0.71584590	     -0.66151018	     96.72259176	    -21.62576867	     -7.52369417	     86.74015220	      1.51390125	     29.48856677	      1.20456468	     -7.49999987	     99.48074122	    -15.23522828	     -2.12951745	     85.75466429	      1.49670124	     23.85991117	     10.16671153	     -7.49999987	    -27.74104972	      4.24703065	      1.28452450	     88.57234074	    -10.17397206	     18.94517273	    118.29844856	    101.68150116	     88.28532239	     -4.85992606	     25.18325015	    114.96641336	    109.87128672
